<?xml version="1.0" encoding="utf-8"?>
<!-- Generator: Adobe Illustrator 26.0.1, SVG Export Plug-In . SVG Version: 6.00 Build 0)  -->
<svg version="1.1" xmlns="http://www.w3.org/2000/svg" xmlns:xlink="http://www.w3.org/1999/xlink" x="0px" y="0px"
	 viewBox="0 0 750 500" style="enable-background:new 0 0 750 500;" xml:space="preserve">
<style type="text/css">
	.st0{opacity:0.26;}
	.st1{fill:#007DFE;}
	.st2{opacity:0.7;fill:#007DFE;}
	.st3{fill:#FFFFFF;}
	.st4{opacity:0.51;}
	.st5{fill:#303983;}
	.st6{fill:#FFFFFF;stroke:#263238;stroke-linecap:round;stroke-linejoin:round;stroke-miterlimit:10;}
	.st7{fill:none;stroke:#263238;stroke-linecap:round;stroke-linejoin:round;stroke-miterlimit:10;}
	.st8{fill:#263238;stroke:#263238;stroke-linecap:round;stroke-linejoin:round;stroke-miterlimit:10;}
	.st9{fill:#FFFFFF;stroke:#263238;stroke-miterlimit:10;}
	.st10{fill:#263238;}
	.st11{fill:#303983;stroke:#263238;stroke-linecap:round;stroke-linejoin:round;stroke-miterlimit:10;}
	.st12{fill:#BDBDBD;stroke:#263238;stroke-linecap:round;stroke-linejoin:round;stroke-miterlimit:10;}
	.st13{fill:#303983;stroke:#303983;stroke-linecap:round;stroke-linejoin:round;stroke-miterlimit:10;}
	.st14{fill:none;stroke:#878787;stroke-linecap:round;stroke-linejoin:round;stroke-miterlimit:10;}
	.st15{fill:#616161;stroke:#263238;stroke-linecap:round;stroke-linejoin:round;stroke-miterlimit:10;}
	.st16{fill:#FFFFFF;stroke:#263238;stroke-width:0.5;stroke-linecap:round;stroke-linejoin:round;stroke-miterlimit:10;}
	.st17{fill:#7F8AC2;stroke:#303983;stroke-linecap:round;stroke-linejoin:round;stroke-miterlimit:10;}
	.st18{fill:#636363;stroke:#263238;stroke-linecap:round;stroke-linejoin:round;stroke-miterlimit:10;}
	.st19{fill:#D1D1D1;stroke:#263238;stroke-linecap:round;stroke-linejoin:round;stroke-miterlimit:10;}
</style>
<g id="Background_Simple">
	<g class="st0">
		<path class="st1" d="M676.46,232.59c-20.23-40.72-45.18-78.12-74.01-111.11c-31.11-35.6-62.82-59.66-103.73-75.24
			c-27.7-10.54-56.59-16.58-85.61-17.7c-53.97-2.08-98.48,12.6-142.81,49.66c-47.53,39.73-91.87,84.68-138.18,126.4
			c-4.83,4.35-9.69,8.68-14.57,12.96C36.78,288.43-2.46,414.33,52.17,445.1H680.7c0,0,57.17-3.45,43.08-73.67
			C713.92,322.28,697.82,275.58,676.46,232.59z"/>
		<path class="st2" d="M676.46,232.59c-20.23-40.72-45.18-78.12-74.01-111.11c-31.11-35.6-62.82-59.66-103.73-75.24
			c-27.7-10.54-56.59-16.58-85.61-17.7c-53.97-2.08-98.48,12.6-142.81,49.66c-47.53,39.73-91.87,84.68-138.18,126.4
			c-4.83,4.35-9.69,8.68-14.57,12.96C36.78,288.43-2.46,414.33,52.17,445.1H680.7c0,0,57.17-3.45,43.08-73.67
			C713.92,322.28,697.82,275.58,676.46,232.59z"/>
	</g>
</g>
<g id="Plant">
	<g>
		<rect x="615.79" y="325.23" class="st3" width="47.53" height="63.37"/>
		<polygon class="st3" points="636.78,196.15 636.78,334.85 641.64,329.99 641.64,249.32 656.68,213.76 640.7,243.59 640.1,200.54 
					"/>
		<g class="st4">
			<polygon class="st5" points="627.32,190.04 599.65,172.52 616.25,190.5 589.51,184.04 608.41,193.27 576.14,193.27 
				602.88,197.42 571.53,203.41 596.89,202.49 573.37,212.17 598.73,208.02 565.07,231.07 605.19,211.71 583.98,232.92 
				603.34,220.47 589.51,244.9 609.8,221.39 599.65,242.6 617.63,220.01 617.63,235.68 625.93,216.78 625.93,227.38 634.23,205.25 
				634.23,216.32 640.1,200.54 641.61,196.49 623.63,172.06 629.16,186.81 623.63,182.2 			"/>
			<polygon class="st1" points="623.82,233.41 591.32,237.45 615.56,240.8 590.81,252.79 611.26,247.91 586.33,268.41 
				609.63,254.63 589.21,279.17 608.22,262.35 596.2,284.77 613.16,265.46 601.8,304.64 620.48,264.21 617.57,294.06 624.62,272.14 
				629.46,299.8 630.19,268.76 635.83,291.58 635.37,262.71 645.33,274.82 639.73,254.95 646.47,263.14 638.82,240.77 
				645.85,249.32 640.36,233.41 638.96,229.32 609.55,221.87 623.19,229.75 615.99,229.7 			"/>
			<polygon class="st5" points="623.82,233.41 591.32,237.45 615.56,240.8 590.81,252.79 611.26,247.91 586.33,268.41 
				609.63,254.63 589.21,279.17 608.22,262.35 596.2,284.77 613.16,265.46 601.8,304.64 620.48,264.21 617.57,294.06 624.62,272.14 
				629.46,299.8 630.19,268.76 635.83,291.58 635.37,262.71 645.33,274.82 639.73,254.95 646.47,263.14 638.82,240.77 
				645.85,249.32 640.36,233.41 638.96,229.32 609.55,221.87 623.19,229.75 615.99,229.7 			"/>
			<polygon class="st5" points="653.43,181.56 696.39,175.52 666.54,188.16 702.34,194.97 674.49,195.78 713.44,213.4 678.9,203.81 
				713.47,228.16 683.36,213.2 706.46,237.73 678.12,218.87 706.15,265.08 668.31,219.8 682.33,256.98 665.75,231.38 669.1,268.43 
				657.46,228.97 658.12,260.11 648.75,223.02 640.19,241.94 640.5,214.59 634.71,227.39 636.78,196.15 630.74,209.5 632.26,187.26 
				632.66,181.55 667.7,161.87 652.97,176.66 662.16,174.12 			"/>
			<polygon class="st5" points="647.86,173.99 665.38,146.33 647.39,162.93 653.85,136.19 644.63,155.09 644.63,122.82 
				640.48,149.56 634.48,118.2 635.41,143.56 625.72,120.05 629.87,145.41 606.82,111.75 626.19,151.86 604.98,130.65 
				617.43,150.02 592.99,136.19 616.5,156.47 595.29,146.33 617.89,164.31 602.21,164.31 621.11,172.61 610.51,172.61 
				632.64,180.91 621.58,180.91 637.35,186.78 641.4,188.29 665.84,170.3 651.08,175.84 655.69,170.3 			"/>
		</g>
	</g>
</g>
<g id="Stage">
	<g>
		<polyline class="st6" points="31.63,476.54 31.63,399.3 41.24,387.98 717.15,387.98 728.71,401.72 728.71,475.66 		"/>
		<line class="st7" x1="36.81" y1="399.66" x2="722.24" y2="399.66"/>
	</g>
</g>
<g id="Bricks">
	<g>
		<path class="st7" d="M655.6,104.48h-33.53c-2.19,0-3.96-1.77-3.96-3.96V83.21c0-2.19,1.77-3.96,3.96-3.96h33.53
			c2.19,0,3.96,1.77,3.96,3.96v17.31C659.56,102.7,657.79,104.48,655.6,104.48z"/>
		<path class="st7" d="M675.43,56.72h-17.31c-2.19,0-3.96-1.77-3.96-3.96v-4.69c0-2.19,1.77-3.96,3.96-3.96h17.31
			c2.19,0,3.96,1.77,3.96,3.96v4.69C679.39,54.95,677.61,56.72,675.43,56.72z"/>
		<path class="st7" d="M687.14,131.51h-7.4c-2.19,0-3.96-1.77-3.96-3.96v-1.09c0-2.19,1.77-3.96,3.96-3.96h7.4
			c2.19,0,3.96,1.77,3.96,3.96v1.09C691.1,129.74,689.33,131.51,687.14,131.51z"/>
		<path class="st7" d="M453.75,302.72H405.8c-2.19,0-3.96-1.77-3.96-3.96v-15.51c0-2.19,1.77-3.96,3.96-3.96h47.95
			c2.19,0,3.96,1.77,3.96,3.96v15.51C457.71,300.95,455.94,302.72,453.75,302.72z"/>
		<path class="st7" d="M496.1,275.69H486c-2.19,0-3.96-1.77-3.96-3.96v-2.89c0-2.19,1.77-3.96,3.96-3.96h10.1
			c2.19,0,3.96,1.77,3.96,3.96v2.89C500.06,273.92,498.29,275.69,496.1,275.69z"/>
		<path class="st7" d="M442.94,343.27h-20.01c-2.19,0-3.96-1.77-3.96-3.96v-4.7c0-2.19,1.77-3.96,3.96-3.96h20.01
			c2.19,0,3.96,1.77,3.96,3.96v4.7C446.9,341.5,445.13,343.27,442.94,343.27z"/>
		<path class="st7" d="M291.55,285.6h-29.93c-2.19,0-3.96-1.77-3.96-3.96v-10.1c0-2.19,1.77-3.96,3.96-3.96h29.93
			c2.19,0,3.96,1.77,3.96,3.96v10.1C295.51,283.83,293.74,285.6,291.55,285.6z"/>
		<path class="st7" d="M225.77,312.64h-20.92c-2.19,0-3.96-1.77-3.96-3.96v-8.3c0-2.19,1.77-3.96,3.96-3.96h20.92
			c2.19,0,3.96,1.77,3.96,3.96v8.3C229.73,310.86,227.96,312.64,225.77,312.64z"/>
		<path class="st7" d="M218.56,277.49h-11.9c-2.19,0-3.96-1.77-3.96-3.96v-3.79c0-2.19,1.77-3.96,3.96-3.96h11.9
			c2.19,0,3.96,1.77,3.96,3.96v3.79C222.52,275.72,220.75,277.49,218.56,277.49z"/>
		<path class="st7" d="M111.33,128.81H98.52c-2.19,0-3.96-1.77-3.96-3.96v-1.99c0-2.19,1.77-3.96,3.96-3.96h12.81
			c2.19,0,3.96,1.77,3.96,3.96v1.99C115.29,127.03,113.51,128.81,111.33,128.81z"/>
		<path class="st7" d="M96.91,90.96H63.38c-2.19,0-3.96-1.77-3.96-3.96V72.39c0-2.19,1.77-3.96,3.96-3.96h33.53
			c2.19,0,3.96,1.77,3.96,3.96V87C100.87,89.19,99.09,90.96,96.91,90.96z"/>
		<path class="st7" d="M132.05,77.44h-15.51c-2.19,0-3.96-1.77-3.96-3.96v-1.99c0-2.19,1.77-3.96,3.96-3.96h15.51
			c2.19,0,3.96,1.77,3.96,3.96v1.99C136.01,75.67,134.24,77.44,132.05,77.44z"/>
		<path class="st7" d="M105.92,37.79H92.21c-2.19,0-3.96-1.77-3.96-3.96v-2.89c0-2.19,1.77-3.96,3.96-3.96h13.71
			c2.19,0,3.96,1.77,3.96,3.96v2.89C109.88,36.02,108.11,37.79,105.92,37.79z"/>
		<path class="st7" d="M55.46,324.35h-11.9c-2.19,0-3.96-1.77-3.96-3.96v-2.89c0-2.19,1.77-3.96,3.96-3.96h11.9
			c2.19,0,3.96,1.77,3.96,3.96v2.89C59.42,322.58,57.64,324.35,55.46,324.35z"/>
		<path class="st7" d="M694.35,314.44h-27.22c-2.19,0-3.96-1.77-3.96-3.96v-15.51c0-2.19,1.77-3.96,3.96-3.96h27.22
			c2.19,0,3.96,1.77,3.96,3.96v15.51C698.31,312.67,696.54,314.44,694.35,314.44z"/>
	</g>
</g>
<g id="Speech_Bubble">
	<g>
		<path class="st8" d="M436.99,41.02h-53.51c-3.52,0-6.38,2.85-6.38,6.38v27.2c0,3.38,2.64,6.14,5.96,6.36l-3.14,10.83l14.05-10.81
			h43.02c3.52,0,6.38-2.86,6.38-6.38v-27.2C443.37,43.87,440.51,41.02,436.99,41.02z"/>
		<path class="st9" d="M434.79,38.09h-53.51c-3.52,0-6.38,2.85-6.38,6.38v27.2c0,3.38,2.64,6.14,5.96,6.36l-3.14,10.83l14.05-10.81
			h43.02c3.52,0,6.38-2.86,6.38-6.38v-27.2C441.17,40.94,438.31,38.09,434.79,38.09z"/>
		<g>
			<path class="st10" d="M396.99,57.35c0,1.17-0.95,2.11-2.11,2.11s-2.11-0.95-2.11-2.11c0-1.17,0.95-2.12,2.11-2.12
				S396.99,56.19,396.99,57.35z"/>
			<path class="st10" d="M410.15,57.35c0,1.17-0.95,2.11-2.11,2.11c-1.17,0-2.11-0.95-2.11-2.11c0-1.17,0.95-2.12,2.11-2.12
				C409.2,55.24,410.15,56.19,410.15,57.35z"/>
			<path class="st10" d="M423.31,57.35c0,1.17-0.95,2.11-2.11,2.11s-2.11-0.95-2.11-2.11c0-1.17,0.95-2.12,2.11-2.12
				S423.31,56.19,423.31,57.35z"/>
		</g>
	</g>
</g>
<g id="Board">
	<g>
		<rect x="135.87" y="23.85" class="st7" width="458.98" height="226.08"/>
		<rect x="135.87" y="241.92" class="st7" width="458.98" height="8.01"/>
	</g>
</g>
<g id="Podium">
	<g>
		<polygon class="st11" points="165.82,217.4 65.14,217.4 59.55,148.74 171.42,148.74 		"/>
		<polygon class="st11" points="165.82,222.31 65.14,222.31 59.55,154.19 171.42,154.19 		"/>
		<rect x="68.34" y="168.39" class="st11" width="94" height="223.03"/>
		<rect x="87.35" y="200" class="st11" width="54.07" height="67.58"/>
		<rect x="55.9" y="372.56" class="st11" width="118.88" height="18.85"/>
	</g>
</g>
<g id="Character_6">
	<g>
		<path class="st8" d="M329.24,49.77c0,0-7.95-1.81-13.86,0.24c-5.91,2.05-12.17,8.92-11.33,10.49c0.84,1.57,5.42-0.12,5.42-0.12
			s-4.22,4.22-3.62,4.82c0.6,0.6,1.21,1.08,1.21,1.08s-5.18,5.18-5.91,11.57c-0.72,6.39,2.17,9.04,2.17,9.04l3.62-2.29
			c0,0-0.72,5.91,3.62,8.92c4.34,3.01,4.82,1.57,4.82,1.57s5.18,7.11,13.62,8.32c8.44,1.21,13.14,0.24,16.27-1.45
			c3.13-1.69,5.54-3.74,5.54-3.74s-0.72,2.53,2.53,1.33s9.28-8.2,9.28-8.2s1.33,1.93,3.01-0.48c1.69-2.41,0.24-12.17,0.24-12.17
			s4.58,1.45,3.62-2.17c-0.96-3.62-5.06-15.43-8.8-18.32s-9.4-4.7-9.4-4.7s2.77,1.08,2.05-0.72c-0.72-1.81-7.11-5.18-13.14-5.3
			c-6.03-0.12-7.83,1.81-7.83,1.81s-1.57-2.29-2.41-1.33C329.12,48.93,329.24,49.77,329.24,49.77z"/>
		<path class="st7" d="M319.07,72.74c0,0-1.75,0.58-1.46,3.07c0.29,2.48,2.7,6.36,2.7,6.36L319.07,72.74z"/>
		<path class="st7" d="M347.94,72.67c0,0,2.27-0.29,2.05,2.85c-0.22,3.14-2.34,7.16-2.34,7.16L347.94,72.67z"/>
		<g>
			<path class="st8" d="M295.58,197.82c0,0-1.83,20.59,3.29,36.54c5.12,15.95,12.59,33.59,12.93,38.44
				c0.34,4.85-7.63,23.22-5.44,38.06c2.19,14.84,14.16,44.15,15.1,50.42c0.94,6.28-2.43,29.21-2.11,31.78
				c0.32,2.57,5.39,3.33,7.43,3.31c2.04-0.02,4.83-1.96,4.83-1.96s3.67,1.08,7.09,0.6c3.42-0.48,3.62-3.84,2.67-6.97
				c-0.95-3.13-4.57-21.68-4.84-25.71c-0.27-4.03,8.17-29.3,9.84-43.77c1.89-16.37,1.97-30.26,2.83-36.31
				c0.85-6.06,1.27-9.42,1.27-9.42s10.45-28.1,13.95-43.37c3.5-15.27,2.19-31.6,2.18-32.95c-0.01-1.34-4.97-16.08-4.97-16.08
				l-62.18-0.49L295.58,197.82z"/>
			<path class="st12" d="M336.54,362.34c-0.03-0.48,0.06-1.28,0.25-2.31l-6.22-0.09l-9.36,0.09c0.12,0.48,0.21,0.91,0.26,1.25
				c0.94,6.28-2.43,29.21-2.11,31.78c0.32,2.57,5.39,3.33,7.43,3.31s4.83-1.96,4.83-1.96s3.67,1.08,7.09,0.6
				c3.42-0.48,3.62-3.84,2.67-6.97C340.43,384.92,336.81,366.37,336.54,362.34z"/>
			<path class="st13" d="M341.37,388.05c0,0-2.21,0.62-4.8,0.9c-2.59,0.28-5.33-0.71-5.33-0.71s1.31,1.51,1.33,2.78
				c0.01,1.27-0.96,3.39-0.96,3.39s5.55,1.14,8.14,0.1C342.33,393.47,342.57,390.23,341.37,388.05z"/>
			<path class="st13" d="M332.02,388.23l-12.35-0.25c-0.25,2.56-0.4,4.45-0.32,5.08c0.32,2.57,5.39,3.33,7.43,3.31
				s4.83-1.96,4.83-1.96C332.93,392.44,332.02,388.23,332.02,388.23z"/>
			<polyline class="st12" points="330.57,359.93 330.92,369.16 332.02,388.23 			"/>
			<path class="st14" d="M332.94,224.52c0.14-5.91,0.24-10,0.24-10"/>
			<path class="st14" d="M330.19,338.37c0.52-23.93,1.49-68.17,1.63-70.87c0.13-2.39,0.65-23.57,1.01-38.42"/>
			<path class="st14" d="M329.87,353.47c0,0,0.09-4.1,0.23-10.51"/>
			<polyline class="st14" points="324.11,208.81 333.42,213.11 340.44,208.52 			"/>
		</g>
		<g>
			<path class="st6" d="M317.75,106.28c0,0,11.95-3.24,18.27-2.9c6.32,0.34,11.27,2.56,11.27,2.56s2.9,12.29,3.59,26.98
				c0.68,14.69-1.2,46.45-1.88,51.23c-0.68,4.78-1.02,7.51-1.02,7.51s-11.78-6.49-16.05-6.66c-4.27-0.17-12.98,3.07-12.98,3.07
				s-3.42-23.39-3.93-39.1c-0.51-15.71,0.85-38.42,0.85-38.42L317.75,106.28z"/>
			<line class="st7" x1="323.77" y1="172.93" x2="340.26" y2="159.81"/>
			<line class="st7" x1="344.83" y1="150.95" x2="337.2" y2="157.67"/>
		</g>
		<path class="st12" d="M325.04,93.28l-1.69,12.2c0,0,2.94,7.64,10.88,7.86c7.94,0.22,11.91-8.3,11.91-8.3l-3.01-12.71L325.04,93.28
			z"/>
		<polygon class="st8" points="326.37,94.67 324.71,103.5 333.95,98.09 		"/>
		<g>
			<path class="st12" d="M330.65,59.19c0,0-3.5,0.27-7.14,3.02s-3.29,7.97-3.22,11.88c0.07,3.92,0.99,14.5,2.45,17.19
				c1.47,2.69,7.19,7.15,10.48,7.28c3.3,0.12,10.75-4.85,12.09-9c1.34-4.15,3.07-15.01,1.97-21.36c-1.1-6.35-7.45-7.94-7.45-7.94
				s0.24,2.32-0.73,1.83S330.65,59.19,330.65,59.19z"/>
			<path class="st7" d="M331.53,81.68c0,0-0.21,1.29,0.34,1.71c0.55,0.42,1.71,0.37,2.54,0.09c0.83-0.28,0.94-1.87,0.94-2.07"/>
			<path class="st6" d="M326.84,85.92c0,0,6.83,1.37,12.8-0.61c0,0-1.87,4.18-5.84,5.29C329.85,91.71,326.84,85.92,326.84,85.92z"/>
			<path class="st7" d="M322.84,71.74c0,0,2.58-1.96,5.17-0.93"/>
			<path class="st7" d="M339.07,71.22c0,0,3.51,0.21,4.44,1.45"/>
			<path class="st10" d="M328.1,76.5c0,0.96-0.39,1.73-0.87,1.73c-0.48,0-0.87-0.78-0.87-1.73s0.39-1.73,0.87-1.73
				C327.71,74.76,328.1,75.54,328.1,76.5z"/>
			<path class="st10" d="M339.27,76.5c0,0.96-0.39,1.74-0.87,1.74s-0.87-0.78-0.87-1.74s0.39-1.74,0.87-1.74
				S339.27,75.53,339.27,76.5z"/>
			<g>
				<path class="st7" d="M319.33,74.22l1.14,5.37c0,0,5.79,0.62,10.54-0.83l1.1-5.48C332.11,73.29,323.98,71.12,319.33,74.22z"/>
				<path class="st7" d="M347.44,74.22l-1.14,5.37c0,0-5.79,0.62-10.54-0.83l-1.1-5.48C334.66,73.29,342.79,71.12,347.44,74.22z"/>
				<path class="st7" d="M332.11,73.29c0,0,2.07-0.2,2.55,0"/>
			</g>
		</g>
		<g>
			<path class="st13" d="M323.67,104.17c0,0-9.3,2.38-14.96,3.43c-5.67,1.05-9.91,2.23-10.75,3.91
				c-0.84,1.68-12.91,43.44-12.07,46.59c0.84,3.15,3.04,4.3,6.51,5.77c3.46,1.47,6.3,1.89,6.3,1.89s-7.98,34.21-7.56,35.57
				c0.42,1.36,7.14,7.98,16.79,8.5c9.65,0.52,13.22,0,13.75-8.81c0.52-8.81-2.52-33.79-2.52-33.79S318,151.5,318,138.69
				C318,125.89,323.67,104.17,323.67,104.17z"/>
			<path class="st13" d="M306.74,119.06c0,0-5.55,19.15-6.44,24.7c-0.89,5.55-1.79,19.51-1.79,19.51"/>
		</g>
		<g>
			<polygon class="st10" points="333.98,112.26 327.32,110.95 328.95,106.2 334.27,107.25 			"/>
			
				<rect x="326.83" y="111.26" transform="matrix(0.9811 0.1935 -0.1935 0.9811 28.2534 -61.7517)" class="st10" width="6.79" height="4.98"/>
			<polygon class="st15" points="328.36,137.2 323.04,136.15 326.39,115.65 333.05,116.96 			"/>
			
				<rect x="327.24" y="111.31" transform="matrix(0.9811 0.1935 -0.1935 0.9811 27.8652 -61.8801)" class="st16" width="6.85" height="0.76"/>
		</g>
		<g>
			<path class="st12" d="M307.78,140.84l7.98-5.45c0,0,7.84-17.73,8.55-18.38c0.72-0.65,8.52,1.18,9.02,1.45
				c0.49,0.27,0.83,0.95,0.75,1.58c-0.08,0.62-0.34,1.86-0.34,1.86s-0.09,1.57-0.16,2.1c-0.07,0.52-0.47,2.06-0.52,2.47
				c-0.05,0.42-0.31,1.65-0.31,1.65s2.11,0.9,3.02,2.07c0.91,1.17,0.55,1.55-0.21,1.67c-0.76,0.12-2.04-0.57-2.56-0.64
				c-0.52-0.07-5.3-0.77-6.51-0.4c-1.21,0.38-1.36,2.37-2.79,4.51c-1.43,2.15-3.96,3.73-3.96,3.73l-9.07,13.24L307.78,140.84z"/>
			<path class="st7" d="M332.76,128.12c0,0-2.67-0.27-3.88-0.42c-1.2-0.15-3.8-0.99-4.69-0.39"/>
			<path class="st7" d="M323.83,124.06c0.16-0.03,6.53,0.77,7.73,0.97c1.2,0.2,1.57,0.45,1.57,0.45"/>
			<path class="st7" d="M333.51,122.47c0,0-5.07-1.05-6.54-1.49s-2.7-0.44-3.11-0.03"/>
		</g>
		<path class="st13" d="M309.28,139.14l3.96,14.25c0,0-11.05,17.24-16.17,19.22c-5.13,1.98-10.13,0.98-11.51-2.95
			c-1.38-3.92-1.82-10.36,0.3-13.34C287.99,153.34,309.28,139.14,309.28,139.14z"/>
		<path class="st12" d="M378.52,143.58l3.94-9.67c0,0,1.43-6.27,2.15-7.88c0.72-1.61,9.13-4.12,9.67-4.3
			c0.54-0.18,4.12-3.4,4.65-1.25c0.54,2.15,0.36,2.51-1.25,3.4c-1.61,0.9-5.01,2.86-5.01,2.86s11.28-1.07,11.99-1.07
			c0.72,0,7.7-0.54,6.44,2.33c-1.25,2.86-4.12,6.44-6.44,7.7c-2.33,1.25-16.83,5.01-16.83,5.01l-4.3,8.41L378.52,143.58z"/>
		<path class="st12" d="M411.46,126.87c0,0-2.34-6.49-3.05-6.04s-0.78,0.91-0.45,1.88c0.32,0.97,1.62,5,1.62,5.19
			C409.57,128.1,411.33,129.4,411.46,126.87z"/>
		<path class="st12" d="M408.49,131.89c0,0,2.38-1.96,2.61-3.88c0.23-1.92,0.36-4.91,0.03-6.08s-1.91,0.12-1.63,0.77
			C409.77,123.36,408.51,130.69,408.49,131.89z"/>
		<path class="st12" d="M405.03,135.82c0,0,3.33-3.43,3.46-3.93c0.13-0.5,2.01-9.44,1.01-9.19c-1.01,0.25-2.14,2.01-2.39,3.52
			C406.85,127.74,405.03,135.82,405.03,135.82z"/>
		<path class="st12" d="M386.85,137.05c0,0,1.76-2.39,3.4-3.15c1.64-0.75,12.46-1.13,12.46-1.13s3.9-9.44,4.4-7.68
			c0.5,1.76-1.76,9.89-2.45,10.61c-0.7,0.72-11.64,3.86-13.91,4.36"/>
		<g>
			<path class="st13" d="M346.13,105.04c0,0,3.21,22.07,3.03,42.66c-0.18,20.59-6.27,47.62-6.62,52.27
				c-0.36,4.65-0.54,8.23,5.19,10.2c5.73,1.97,11.1-0.72,16.29-4.12c5.19-3.4,6.27-6.27,6.27-6.27l-7.34-28.1
				c0,0,7.7,6.09,12.35-0.36c4.65-6.44,10.92-22.02,10.92-22.02l-6.62-7.88l-7.7,7.7c0,0-4.65-37.05-5.91-38.31
				c-1.25-1.25-2.86-1.43-3.58-1.43C361.69,109.39,346.13,105.04,346.13,105.04z"/>
			<line class="st17" x1="371.9" y1="149.13" x2="365.8" y2="154.61"/>
			<path class="st17" d="M360.84,128.92c1.5,7.5,3.47,18.26,3.36,22.72c-0.18,7.16-1.25,20.05-1.25,20.05"/>
			<path class="st17" d="M359.19,121.03c0,0,0.37,1.65,0.9,4.22"/>
		</g>
	</g>
</g>
<g id="Character_5">
	<g>
		<path class="st6" d="M698.13,476.17l-5.7-40.67V408.4h13.42c0,0,2.89,3.95,3.68,10.26c0.69,5.5,4.56,46.87,5.56,57.51H698.13z"/>
		<path class="st6" d="M596.34,476.17c0.99-10.64,4.87-52.01,5.56-57.51c0.79-6.32,3.68-10.26,3.68-10.26H619v27.11l-5.7,40.67
			H596.34z"/>
		<path class="st18" d="M707.16,420.76c-2.89,5.26-6.58,6.05-5.79,7.11c0.79,1.05,3.68,4.47,1.58,7.89
			c-2.11,3.42-5.79,6.32-6.58,7.11c-0.66,0.66-4.09,25.3-5.19,33.3h-69.89c-1.1-8-4.52-32.64-5.19-33.3
			c-0.79-0.79-4.47-3.68-6.58-7.11c-2.11-3.42,0.79-6.84,1.58-7.89c0.79-1.05-2.89-1.84-5.79-7.11c-2.89-5.26,0.53-6.58,0.53-9.47
			s-2.63-4.47-1.32-7.89c1.32-3.42,6.32-2.11,7.89-1.84c1.58,0.26,1.84,0.53,7.63-0.79c5.79-1.32,21.58-8.95,21.58-8.95l7.11-0.51
			v-1.07l7.5,0.54l7.5-0.54v1.07l7.11,0.51c0,0,15.79,7.63,21.58,8.95c5.79,1.32,6.05,1.05,7.63,0.79c1.58-0.26,6.58-1.58,7.89,1.84
			c1.32,3.42-1.32,5-1.32,7.89S710.06,415.5,707.16,420.76z"/>
		<path class="st8" d="M619.87,476.17l-1.42-39.7c36.25,6.22,74.76,0,74.76,0l-1.06,39.7H619.87z"/>
		<g>
			<path class="st6" d="M640.09,337.36c0,0-2.93,4.63-3.09,8.03c-0.15,3.4-0.15,5.71-1.23,6.79c-1.08,1.08-2.78,1.23-1.85,2.93
				c0.93,1.7,2.01,2.93,2.01,2.93s1.39,5.56,2.47,8.03s1.54,5.87,2.47,6.79c0.93,0.93,3.09,1.08,3.09,1.08l0.93,6.95l6.48-8.18
				l-6.33-38.9L640.09,337.36z"/>
			<path class="st12" d="M661.63,325.23c0,0,7.13-0.69,13.11,9.2c5.98,9.89,4.6,23.46,1.84,29.89c-2.76,6.44-8.97,14.03-16.56,15.18
				c-7.59,1.15-15.64-3.22-20.47-17.25s0.69-29.66,5.29-33.57C649.44,324.77,656.34,322.93,661.63,325.23z"/>
			<g>
				<path class="st12" d="M664.62,346.16c0,0,17.71,16.79,16.1,32.42c-1.61,15.64-9.66,14.49-8.74,25.99
					c0.92,11.5,8.97,14.72,7.82,22.31c-1.15,7.59-5.06,12.88-10.12,15.41c-5.06,2.53-8.51,2.53-8.51,2.53l0.92-5.98
					c0,0-4.37,5.75-10.58,4.6c-6.21-1.15-9.89-5.75-11.04-9.2c-1.15-3.45-1.15-3.45-1.15-3.45s4.14,0.46,5.29-5.06
					c1.15-5.52-4.37-8.28-6.44-13.11s-4.37-15.18-0.46-25.76c3.91-10.58,11.27-13.8,13.57-23.92c2.3-10.12,2.53-17.71,6.44-20.01
					C661.63,340.64,664.62,346.16,664.62,346.16z"/>
				<path class="st7" d="M662.78,435.61c0,0,4.83-2.53,1.84-15.18c-2.99-12.65-9.89-12.19-5.29-26.44
					c4.6-14.26,11.04-20.93,9.2-31.5c-1.84-10.58-7.36-16.1-7.36-16.1"/>
				<path class="st7" d="M647.37,440.21c0,0,6.67,0,5.29-9.89c-1.38-9.89-11.27-8.28-14.49-17.71"/>
				<path class="st7" d="M657.26,348.46c0,0,4.37,6.9-0.46,22.31s-14.95,19.09-14.26,31.5c0.69,12.42,6.21,15.87,6.21,15.87"/>
			</g>
			<path class="st7" d="M661.63,327.76c0,0,0.92,6.9-0.92,12.19"/>
			<path class="st7" d="M654.73,343.63c0,0-9.2,0.23-14.72-1.61"/>
			<path class="st7" d="M640.24,359.04c0,0,7.36,1.38,11.5-3.45"/>
			<path class="st7" d="M676.12,340.41c0,0-4.83,6.44-11.5,5.75"/>
		</g>
	</g>
</g>
<g id="Character_4">
	<g>
		<g>
			<path class="st12" d="M582.33,476.17c-1.37-12.92-6.84-64.7-6.84-67.66c0-3.38-6.36-4.86-10.53-7.61
				c-4.17-2.75-23.44-15.63-23.44-15.63l-20.26-0.63L501,385.27c0,0-19.27,12.89-23.44,15.63c-4.17,2.75-10.53,4.23-10.53,7.61
				c0,2.96-5.47,54.74-6.84,67.66H582.33z"/>
			<path class="st7" d="M471.93,409.77c0,0,7.61,18.38,10.99,23.24"/>
			<line class="st7" x1="473.2" y1="424.35" x2="478.9" y2="432.8"/>
			<line class="st7" x1="568.69" y1="414.84" x2="559.18" y2="434.07"/>
			<line class="st7" x1="566.37" y1="426.04" x2="562.14" y2="432.8"/>
		</g>
		<polygon class="st6" points="508.8,363.14 507.17,381.9 537.68,381.9 534.41,363.95 		"/>
		<path class="st6" d="M502.92,345.38c0,0-5.13-1.71-4.27,5.13c0.85,6.84,7.69,10.9,7.69,10.9L502.92,345.38z"/>
		<path class="st6" d="M541.58,345.38c0,0,5.13-1.71,4.27,5.13c-0.85,6.84-7.69,10.9-7.69,10.9L541.58,345.38z"/>
		<path class="st8" d="M543.53,332.99c-0.21-1.5-5.77-9.4-8.76-10.9c-2.99-1.5-5.77-3.21-9.19,1.28c0,0-0.11-0.07-0.29-0.2
			c0.23-0.37,0.2-0.7,0.2-0.7s-1.86-5.74-5.31-7.17c-3.44-1.43-10.33,0.86-12.34,5.88c-0.05,0.13-0.07,0.22-0.12,0.34
			c-2.37,1.76-4.56,4.55-5.87,8.9c-2.56,8.55-1.5,9.19-0.64,9.83c0.85,0.64-0.21,7.05,0.85,11.97c1.07,4.91,4.91,13.46,13.04,17.1
			c8.12,3.63,15.6,0.64,17.52-0.64c1.92-1.28,9.4-13.25,10.04-17.1c0.64-3.85-1.71-13.25-1.71-13.25S543.74,334.48,543.53,332.99z"
			/>
		<polygon class="st12" points="501.06,377.17 496.71,388.26 545.02,387.77 539.63,377.49 		"/>
		<path class="st8" d="M560.98,476.17l1.58-40.41c-40.56,6.34-83.66,0-83.66,0l1.18,40.41H560.98z"/>
	</g>
</g>
<g id="Character_3">
	<g>
		<g>
			<path class="st6" d="M435.23,476.17c1.18-12.92,5.91-64.7,5.91-67.66c0-3.38-6.36-4.86-10.53-7.61
				c-4.17-2.75-23.44-15.63-23.44-15.63l-20.26-0.63l-20.26,0.63c0,0-19.27,12.89-23.44,15.63c-4.17,2.75-10.53,4.23-10.53,7.61
				c0,2.96,2.71,54.74,3.39,67.66H435.23z"/>
			<path class="st7" d="M337.59,409.77c0,0,7.61,18.38,10.99,23.24"/>
			<line class="st7" x1="338.86" y1="424.35" x2="344.56" y2="432.8"/>
			<line class="st7" x1="434.35" y1="414.84" x2="424.85" y2="434.07"/>
			<line class="st7" x1="432.03" y1="426.04" x2="427.8" y2="432.8"/>
		</g>
		<path class="st8" d="M426.64,476.17l1.58-40.41c-40.56,6.34-83.66,0-83.66,0l1.18,40.41H426.64z"/>
		<path class="st8" d="M383.75,317.98c0,0-12.41-1.1-15.33,6.21c-2.92,7.3-9.86,41.62-12.78,48.92c-2.92,7.3-0.37,14.24,6.21,17.52
			c6.57,3.29,37.6,3.65,42.71,3.29c5.11-0.37,12.78-4.02,14.24-7.67c1.46-3.65,0.73-13.14-1.83-17.16
			c-2.56-4.02-5.11-22.63-9.49-35.41C403.1,320.91,397.26,310.32,383.75,317.98z"/>
	</g>
</g>
<g id="Character_2">
	<g>
		<g>
			<path class="st18" d="M318.56,476.17c-1.25-11.14-6.46-56.68-8.71-60.01c-2.57-3.79-30.14-22.18-30.14-22.18l-21.8-0.88
				l-21.8,0.88c0,0-27.57,18.39-30.14,22.18c-2.25,3.33-7.46,48.87-8.71,60.01H318.56z"/>
			<g>
				<path class="st7" d="M229.36,430.23c0,0,17.86,8.11,20.8,8.85"/>
				<line class="st7" x1="247.22" y1="433.18" x2="259.49" y2="438.59"/>
				<path class="st7" d="M304.28,426.54c0,0-6.93,9.34-9.07,10.57"/>
				<path class="st7" d="M213.09,427.28c0,0,2.4,9.34,4.8,11.56"/>
			</g>
		</g>
		<polygon class="st6" points="245.15,371.93 243.52,389.23 274.03,389.23 270.77,372.68 		"/>
		<path class="st6" d="M239.28,355.56c0,0-5.13-1.58-4.27,4.73c0.85,6.31,7.69,10.05,7.69,10.05L239.28,355.56z"/>
		<path class="st6" d="M277.93,355.56c0,0,5.13-1.58,4.27,4.73c-0.85,6.31-7.69,10.05-7.69,10.05L277.93,355.56z"/>
		<polygon class="st18" points="238.39,386.73 233.06,395.1 281.37,394.65 277.11,386.93 		"/>
		<path class="st8" d="M297.33,476.17l1.58-37.26c-40.56,5.85-83.66,0-83.66,0l1.18,37.26H297.33z"/>
		<path class="st8" d="M268.93,331.01c0,0-8.35-3.21-15.65-1.76c-7.3,1.44-12.87,7.86-15.13,14.43s0.17,14.27,0.17,15.23
			c0,0.96,2.09,8.82,3.3,11.38s7.13,9.94,7.13,9.94h18.26c0,0,7.3-9.78,8.69-11.71c1.39-1.92,3.48-10.9,3.83-14.75
			c0.35-3.85-2.26-15.07-4.87-18.44C272.06,331.97,268.93,331.01,268.93,331.01z"/>
	</g>
</g>
<g id="Character_1">
	<g>
		<path class="st6" d="M79.4,476.17l5.7-40.67V408.4H71.68c0,0-2.89,3.95-3.68,10.26c-0.69,5.5-4.56,46.87-5.56,57.51H79.4z"/>
		<path class="st6" d="M181.19,476.17c-0.99-10.64-4.87-52.01-5.56-57.51c-0.79-6.32-3.68-10.26-3.68-10.26h-13.42v27.11l5.7,40.67
			H181.19z"/>
		<path class="st19" d="M86.34,476.17h69.89c0.97-7.06,3.75-27.04,4.84-32.12l10.87-35.65l-8.59-5.01
			c-0.99-0.07-3.05-1.98-5.88-2.62c-5.79-1.32-21.58-8.95-21.58-8.95l-7.11-0.51v-1.07l-7.5,0.54l-7.5-0.54v1.07l-7.11,0.51
			c0,0-15.79,7.63-21.58,8.95c-5.79,1.32-11.84,7.89-13.42,7.63l9.47,34.47C81.82,443.53,85.24,468.17,86.34,476.17z"/>
		<path class="st8" d="M157.65,476.17l1.42-39.7c-36.25,6.22-74.76,0-74.76,0l1.06,39.7H157.65z"/>
		<g>
			<path class="st12" d="M143.39,368.91c-2.06-12.33-1.23-23.84-4.93-32.89c-0.48-1.17-1.39-2.15-2.6-2.96
				c-1.02-1.97-2.12-3.49-3.17-4.39c-4.6-3.91-11.5-5.75-16.79-3.45c0,0-5.64-0.54-11.09,6.3c-0.22,0.13-0.38,0.26-0.46,0.38
				c0,0-9.45,13.57-8.22,24.25c1.23,10.69,0.41,27.13-2.88,34.12c-3.29,6.99-8.14,10.47-8.14,10.47s7.31,8.02,10.19,17.89
				c2.88,9.87,11.92,29.19,23.43,29.6c4.52,0.16,8.92-2.43,12.7-6.52c0.28-2.5,0.53-5.78,0.53-9.39c0-7.86-0.6-14.2-0.6-14.2
				s3.93,8.16,3.63,14.81c-0.09,1.93-0.48,3.87-1,5.67c4.54-6.21,7.79-14.48,8.59-22.01c1.64-15.62,9.45-18.09,9.45-18.09
				S145.44,381.25,143.39,368.91z"/>
			<path class="st7" d="M114.07,424.91c-0.2,2.26-0.55,4.32-1.1,6.07"/>
			<path class="st7" d="M99.4,355.76c0,0,0.82,18.5,6.58,27.95c4.52,7.43,8.53,25,8.25,37.97"/>
			<path class="st7" d="M102.6,400.68c0.4,6.9-2.37,10.68-6.07,10.98"/>
			<path class="st7" d="M98.58,369.74c0,0-1.23,11.1,2.47,23.02c0.46,1.49,0.82,2.9,1.07,4.22"/>
			<path class="st7" d="M133.01,402.57c1.51,1.51,3.28,2.2,5.04,1.69"/>
			<path class="st7" d="M138.87,352.47c0,0-6.58,20.96-9.45,31.65c-1.48,5.5-0.68,11.11,1.24,15.03"/>
			<path class="st7" d="M118.63,394.3c-0.17,1.82-0.28,3.64-0.32,5.45"/>
			<path class="st7" d="M126.12,361.93c0,0-5.13,13.67-7.08,28.69"/>
			<path class="st7" d="M135.86,333.07c0,0-4.39-1.56-6.85,5.43"/>
		</g>
	</g>
</g>
<g id="Line">
	<line class="st7" x1="17.96" y1="476.17" x2="741.57" y2="476.17"/>
</g>
</svg>
